<?xml version="1.0" standalone="no"?><!DOCTYPE svg PUBLIC "-//W3C//DTD SVG 1.1//EN" "http://www.w3.org/Graphics/SVG/1.1/DTD/svg11.dtd"><svg t="1563089166890" class="icon" viewBox="0 0 1024 1024" version="1.1" xmlns="http://www.w3.org/2000/svg" p-id="5557" xmlns:xlink="http://www.w3.org/1999/xlink" width="200" height="200"><defs><style type="text/css"></style></defs><path d="M448 416a32 32 0 0 1-64 0 128 128 0 0 1 256 0 140.16 140.16 0 0 1-58.88 117.12l-10.24 8.96C550.08 560.32 544 569.28 544 584v24a32 32 0 0 1-64 0v-24a110.08 110.08 0 0 1 48.64-90.24l10.24-8.96A80 80 0 0 0 576 416a64 64 0 0 0-128 0z m96 288a32 32 0 1 1-32-32 32 32 0 0 1 32 32" p-id="5558" fill="#707070"></path><path d="M896 512a384 384 0 1 0-384 384 384 384 0 0 0 384-384z m64 0A448 448 0 1 1 512 64a448 448 0 0 1 448 448z" p-id="5559" fill="#707070"></path></svg>